# xmcd CD database file
#
# Track frame offsets:
#	150
#	17768
#	51664
#	71201
#	92709
#	108601
#	128359
#	143695
#	162924
#	183819
#	199881
#	215903
#
# Disc length: 3129 seconds
#
# Revision: 0
# Processed by: cddbd v1.5.1PL2 Copyright (c) Steve Scherf et al.
# Submitted via: CDex 1.51
#
DISCID=b30c370c
DTITLE=Phil Kitze and the Resonators - The Sky is Clearing
DYEAR=2006
DGENRE=Blues
TTITLE0=The Sky is Clearing
TTITLE1=Trouble Caught Me
TTITLE2=Can't Be Satisfied
TTITLE3=Don't Know Why
TTITLE4=The Bum is Mine
TTITLE5=The Stumble
TTITLE6=Past 4 A.M.
TTITLE7=Lowdown Ways
TTITLE8=Do I Love You
TTITLE9=Smokestack Lightning
TTITLE10=Down the Road Apiece
TTITLE11=Standing at the Crossroads
EXTD=YEAR: 2006
EXTT0=
EXTT1=
EXTT2=
EXTT3=
EXTT4=
EXTT5=
EXTT6=
EXTT7=
EXTT8=
EXTT9=
EXTT10=
EXTT11=
PLAYORDER=
